<?xml version="1.0" encoding="UTF-8" standalone="no"?> <svg xmlns="http://www.w3.org/2000/svg" viewBox="0 0 64 64"><defs><style>.cls-1{fill:#1c4da1;}.cls-2{fill:#f37121;}</style></defs><g id="Layer_23" data-name="Layer 23"><path class="cls-1" d="M34.94,51.59a21.09,21.09,0,1,1,17.35-33.1,1,1,0,0,1-1.65,1.14A19.09,19.09,0,1,0,54,31.47a1,1,0,0,1,1.05-.95A1,1,0,0,1,56,31.57,21.06,21.06,0,0,1,34.94,51.59Z"/><path class="cls-2" d="M60.79,22A3.18,3.18,0,0,0,59,20.17a3.39,3.39,0,0,0-2.67,0l-4.83,2.13L35.92,17.11a1.05,1.05,0,0,0-.72,0l-3.65,1.6a1,1,0,0,0-.05,1.81l11.1,5.69-8.38,3.69-7.87-3.78a1,1,0,0,0-.84,0L22.44,27.5a1,1,0,0,0-.6.81,1,1,0,0,0,.42.92L33.15,37h0l.18.09.08,0a1,1,0,0,0,.3,0,1,1,0,0,0,.4-.08l25-11a3.2,3.2,0,0,0,1.69-1.79A3.25,3.25,0,0,0,60.79,22Zm-1.87,1.59a1.19,1.19,0,0,1-.63.67L33.85,35l-9-6.37,1-.46,7.87,3.78,0,0a1,1,0,0,0,.28.07h.1l.13,0a1,1,0,0,0,.24-.05h0l10.72-4.72,0,0a.84.84,0,0,0,.29-.2h0a.87.87,0,0,0,.16-.23l0-.05a1.17,1.17,0,0,0,.06-.2,1.13,1.13,0,0,0,0-.18,1.1,1.1,0,0,0,0-.18.73.73,0,0,0,0-.2s0,0,0,0l-.07-.11-.12-.17a1.09,1.09,0,0,0-.17-.13.87.87,0,0,0-.1-.08l-11.1-5.69,1.38-.61,15.6,5.21a1.1,1.1,0,0,0,.18,0,.55.55,0,0,0,.18,0,.64.64,0,0,0,.24-.05l.12,0,0,0h0L57.16,22a1.4,1.4,0,0,1,1.1,0,1.19,1.19,0,0,1,.66.66A1.21,1.21,0,0,1,58.92,23.56Z"/><path class="cls-2" d="M25,35.29c-2.81,3-8.62,4.52-13.51,3.65-3.13-.56-5.67-2.06-6.31-3.73a2.38,2.38,0,0,1,.12-2c.71-1.47,2.61-2.78,5.22-3.59a1,1,0,1,0-.6-1.91c-3.18,1-5.46,2.64-6.42,4.63a4.41,4.41,0,0,0-.19,3.57c1.09,2.83,4.76,4.43,7.82,5a18.93,18.93,0,0,0,3.2.27c4.69,0,9.45-1.7,12.12-4.51A1,1,0,0,0,25,35.29Z"/></g></svg>